{
	"asset":{
		"generator":"Khronos glTF Blender I/O v4.0.44",
		"version":"2.0"
	},
	"scene":0,
	"scenes":[
		{
			"name":"Scene",
			"nodes":[
				0
			]
		}
	],
	"nodes":[
		{
			"mesh":0,
			"name":"Sphere"
		}
	],
	"materials":[
		{
			"doubleSided":true,
			"name":"Material.001",
			"pbrMetallicRoughness":{
				"metallicFactor":0,
				"roughnessFactor":0.5
			}
		}
	],
	"meshes":[
		{
			"name":"Sphere.002",
			"primitives":[
				{
					"attributes":{
						"POSITION":0,
						"NORMAL":1,
						"TEXCOORD_0":2
					},
					"indices":3,
					"material":0
				}
			]
		}
	],
	"accessors":[
		{
			"bufferView":0,
			"componentType":5126,
			"count":279706,
			"max":[
				0.49999937415122986,
				0.5,
				0.499999463558197
			],
			"min":[
				-0.5000006556510925,
				-0.5,
				-0.5000005960464478
			],
			"type":"VEC3"
		},
		{
			"bufferView":1,
			"componentType":5126,
			"count":279706,
			"type":"VEC3"
		},
		{
			"bufferView":2,
			"componentType":5126,
			"count":279706,
			"type":"VEC2"
		},
		{
			"bufferView":3,
			"componentType":5125,
			"count":386640,
			"type":"SCALAR"
		}
	],
	"bufferViews":[
		{
			"buffer":0,
			"byteLength":3356472,
			"byteOffset":0,
			"target":34962
		},
		{
			"buffer":0,
			"byteLength":3356472,
			"byteOffset":3356472,
			"target":34962
		},
		{
			"buffer":0,
			"byteLength":2237648,
			"byteOffset":6712944,
			"target":34962
		},
		{
			"buffer":0,
			"byteLength":1546560,
			"byteOffset":8950592,
			"target":34963
		}
	],
	"buffers":[
		{
			"byteLength":10497152,
			"uri":"sphere.bin"
		}
	]
}
